<svg width="98" height="77" viewBox="0 0 98 77" fill="none" xmlns="http://www.w3.org/2000/svg">
<path d="M59.5538 76.8288L64.6838 46.5502H72.4458L78.5741 60.1682L85.0655 46.5502H90.3121C91.8118 46.5502 93.0824 47.6436 93.3028 49.126L97.4561 76.8288H89.6077L87.382 59.3946L80.4671 71.9754C79.6373 73.3886 77.5887 73.38 76.7633 71.9624L69.9521 59.3946L67.3633 76.8288H59.5538ZM40.8361 70.1559H42.4265C44.3324 70.1559 47.0119 69.9744 49.0518 67.9734C50.0502 67.0226 51.3683 65.1167 51.3683 61.7543C51.3683 58.9408 50.504 56.5335 49.0086 55.129C47.1459 53.4046 44.6955 53.223 42.742 53.223H40.8361V70.1559ZM32.9834 72.5934V46.5502H43.2865C46.3291 46.5502 51.4115 46.9564 55.3185 50.725C58.858 54.1306 59.5409 58.487 59.5409 61.7543C59.5409 65.752 58.5382 69.2915 55.5907 72.2433C53.1835 74.6462 49.1426 76.8288 43.9694 76.8288H37.2187C34.8806 76.8288 32.9834 74.9315 32.9834 72.5934ZM20.1216 65.752L16.7161 55.9458L13.4012 65.752H20.1216ZM22.2091 71.742H11.223L9.17883 76.8288H0.872314L11.7503 48.4907C12.1955 47.3195 13.3191 46.5502 14.5724 46.5502H21.0724L32.4647 76.8288H24.0675L22.2091 71.742Z" fill="#012169"/>
<mask id="mask0_249_451" style="mask-type:luminance" maskUnits="userSpaceOnUse" x="14" y="0" width="75" height="41">
<path d="M14.8187 0.829773H88.9464V40.6596H14.8187V0.829773Z" fill="white"/>
</mask>
<g mask="url(#mask0_249_451)">
<mask id="mask1_249_451" style="mask-type:luminance" maskUnits="userSpaceOnUse" x="15" y="1" width="74" height="40">
<path d="M53.5205 1.29651C39.2715 1.29651 27.1315 7.74465 22.1442 20.8095L15.5577 38.0578C15.1342 39.1642 16.0115 40.4046 17.2216 40.4046H51.0917C65.2413 40.4046 77.5973 32.0116 82.5544 19.0375L88.7649 3.99764C89.2532 2.72271 88.2419 1.29651 86.8546 1.29651H53.5205ZM28.4497 23.4933C32.5036 12.879 42.3054 8.01692 53.8792 8.01692H79.8965L76.2748 16.2759C72.2383 26.8514 62.1771 33.6841 50.6508 33.6841H27.7409C32.5381 28.1868 39.9241 24.2453 48.6628 24.2453H53.3001C57.0125 24.2453 62.1987 22.0801 63.5557 17.5249H48.3041C40.8792 17.5249 33.947 19.8241 28.3071 23.8693L28.4497 23.4933Z" fill="white"/>
</mask>
<g mask="url(#mask1_249_451)">
<path d="M15.1342 1.29651V40.4046H89.2532V1.29651H15.1342Z" fill="url(#paint0_linear_249_451)"/>
</g>
</g>
<defs>
<linearGradient id="paint0_linear_249_451" x1="15.1342" y1="21.0981" x2="89.2532" y2="21.0981" gradientUnits="userSpaceOnUse">
<stop stop-color="#8BC400"/>
<stop offset="1" stop-color="#00AD50"/>
</linearGradient>
</defs>
</svg>
